<?xml version="1.0" standalone="no"?>
<!DOCTYPE svg PUBLIC "-//W3C//DTD SVG 20010904//EN"
 "http://www.w3.org/TR/2001/REC-SVG-20010904/DTD/svg10.dtd">
<svg version="1.0" xmlns="http://www.w3.org/2000/svg"
 width="570.000000pt" height="570.000000pt" viewBox="0 0 570.000000 570.000000"
 preserveAspectRatio="xMidYMid meet">
<metadata>
Created by potrace 1.11, written by Peter Selinger 2001-2013
</metadata>
<g transform="translate(0.000000,570.000000) scale(0.100000,-0.100000)"
fill="#000000" stroke="none">
<path d="M3956 4055 c-27 -7 -52 -17 -57 -22 -13 -14 2 -64 25 -78 16 -10 183
-35 237 -35 5 0 17 -17 26 -37 14 -33 15 -65 7 -238 -10 -228 -8 -340 5 -405
6 -29 6 -113 -1 -235 -6 -104 -12 -266 -12 -360 -1 -185 -9 -219 -51 -235 -15
-6 -64 -10 -109 -10 -70 0 -86 -3 -101 -20 -10 -11 -26 -22 -36 -25 -23 -8
-26 -62 -5 -91 13 -17 29 -19 188 -20 95 -1 257 -5 359 -9 126 -5 222 -4 300
4 63 7 150 16 194 21 55 6 94 16 125 34 25 13 68 33 95 44 69 27 162 85 209
130 76 71 183 227 206 300 12 37 28 78 37 90 10 17 16 63 20 160 3 81 11 151
19 171 22 54 17 98 -24 190 -21 47 -47 119 -57 160 -14 57 -29 88 -68 140 -71
94 -165 189 -212 213 -22 11 -55 33 -75 48 -19 14 -60 36 -90 48 -56 21 -211
50 -265 49 -16 0 -88 5 -159 12 -96 9 -152 9 -220 1 -65 -8 -124 -8 -206 0
-206 19 -253 20 -304 5z m864 -177 c47 -16 99 -41 115 -56 41 -37 198 -142
212 -142 15 0 73 -83 73 -103 0 -23 27 -83 66 -143 45 -71 55 -105 45 -157 -4
-23 -3 -60 1 -82 13 -59 -8 -219 -36 -280 -13 -27 -31 -70 -40 -95 -11 -31
-46 -75 -114 -145 -162 -166 -279 -250 -371 -267 -31 -5 -70 -14 -87 -19 -44
-13 -156 -11 -175 4 -33 25 -51 81 -61 186 -5 58 -16 131 -25 163 -13 46 -13
62 -4 90 20 53 31 288 32 658 2 367 4 384 51 407 39 20 50 21 143 16 64 -4
115 -14 175 -35z"/>
<path d="M910 4041 c-63 -4 -125 -12 -137 -19 -12 -6 -31 -12 -42 -12 -34 0
-223 -69 -263 -95 -21 -14 -42 -25 -48 -25 -5 0 -27 -16 -47 -36 -21 -20 -57
-52 -81 -72 -24 -19 -54 -56 -67 -81 -12 -25 -43 -74 -68 -108 -25 -34 -58
-92 -74 -130 l-28 -68 0 -260 1 -260 39 -90 c21 -49 46 -99 55 -110 9 -11 34
-49 56 -85 21 -36 67 -92 103 -125 72 -67 225 -175 250 -175 9 0 34 -11 57
-24 22 -12 55 -28 74 -34 18 -7 67 -32 109 -56 42 -24 87 -47 101 -51 14 -4
37 -16 51 -26 14 -10 51 -27 82 -39 31 -12 62 -31 71 -44 8 -14 32 -30 53 -36
21 -7 92 -39 158 -71 159 -77 449 -164 642 -194 60 -9 128 -21 153 -27 42 -10
206 -29 240 -28 8 0 53 3 100 6 47 3 127 5 178 4 220 -4 432 56 432 121 0 10
-4 21 -10 24 -5 3 -83 7 -172 9 -93 2 -175 8 -192 15 -16 6 -63 14 -105 18
-42 3 -82 10 -89 16 -7 6 -52 14 -100 18 -48 4 -116 14 -152 22 -36 8 -94 17
-128 21 -35 4 -102 18 -148 32 -46 13 -91 24 -100 24 -8 0 -43 9 -77 20 -34
10 -100 31 -147 46 -79 24 -243 99 -317 146 -28 17 -33 25 -33 58 0 31 6 43
31 62 161 123 216 177 287 283 39 60 72 119 72 132 0 13 8 40 19 61 34 69 53
180 59 347 4 154 3 163 -21 225 -14 36 -36 105 -48 154 l-24 88 -86 82 c-48
46 -89 94 -93 109 -3 14 -16 32 -28 38 -11 6 -39 28 -62 49 -24 22 -77 52
-126 73 -47 19 -105 47 -130 61 -28 16 -58 25 -80 24 -19 -1 -87 -4 -150 -7z
m136 -167 c37 -8 86 -26 109 -40 23 -13 49 -24 58 -24 8 0 26 -17 38 -37 12
-21 35 -53 51 -71 45 -53 88 -147 123 -273 53 -186 53 -229 6 -494 -21 -114
-35 -154 -113 -322 -34 -73 -166 -220 -207 -229 -14 -4 -41 -16 -59 -27 -32
-19 -41 -19 -148 -9 -80 7 -122 15 -143 28 -113 73 -161 107 -161 115 0 4 -13
23 -28 41 -16 18 -36 53 -46 77 -10 25 -35 67 -57 94 -28 35 -39 59 -39 83 0
18 -9 53 -19 76 -23 52 -40 122 -51 203 -20 155 68 452 164 555 24 26 51 61
61 79 31 62 106 149 133 156 23 6 190 29 244 34 9 0 47 -6 84 -15z"/>
<path d="M2003 4020 c-35 -15 -30 -56 10 -81 27 -17 43 -20 111 -16 97 6 171
-12 182 -46 4 -12 7 -87 6 -167 0 -80 3 -161 7 -180 4 -19 3 -62 -1 -95 -5
-34 -4 -153 2 -275 9 -176 8 -262 -6 -475 -8 -143 -18 -270 -20 -282 -6 -30
-27 -35 -161 -37 -107 -2 -117 -4 -134 -25 -23 -28 -23 -41 -5 -86 l15 -35
106 0 c60 0 140 7 183 16 42 9 102 15 132 14 95 -4 797 -4 980 1 255 6 274 21
274 214 0 61 -4 133 -9 160 -9 43 -14 50 -36 53 -43 5 -109 -53 -145 -126 -36
-73 -74 -116 -118 -132 -17 -6 -51 -21 -76 -32 -55 -25 -214 -37 -258 -19 -21
9 -36 9 -58 1 -16 -7 -101 -14 -189 -17 -141 -4 -164 -2 -195 14 l-35 18 -7
190 c-4 118 -12 206 -21 235 -34 105 -33 240 2 240 9 0 26 7 37 14 30 21 340
7 377 -16 33 -23 57 -76 73 -169 7 -44 18 -88 24 -98 20 -38 83 -30 99 11 5
13 16 73 25 133 18 127 23 514 6 545 -17 32 -47 43 -84 30 -30 -10 -35 -17
-49 -73 -9 -34 -18 -84 -20 -111 -3 -26 -14 -60 -24 -75 -22 -28 -26 -29 -342
-23 l-104 2 7 110 c5 83 3 126 -9 179 -13 54 -14 78 -6 108 6 21 11 92 11 159
0 106 2 123 20 141 17 19 24 20 52 12 36 -11 218 -27 433 -37 77 -4 146 -11
153 -15 7 -5 33 -49 57 -99 52 -105 74 -138 129 -195 44 -47 88 -58 101 -25 4
9 9 96 12 192 6 198 -2 240 -54 262 -29 12 -717 18 -1008 9 -77 -3 -205 -2
-285 2 -89 5 -154 3 -167 -3z"/>
</g>
</svg>
