<?xml version="1.0" standalone="no"?>
<!DOCTYPE svg PUBLIC "-//W3C//DTD SVG 20010904//EN"
 "http://www.w3.org/TR/2001/REC-SVG-20010904/DTD/svg10.dtd">
<svg version="1.0" xmlns="http://www.w3.org/2000/svg"
 width="981.000000pt" height="981.000000pt" viewBox="0 0 981.000000 981.000000"
 preserveAspectRatio="xMidYMid meet">
<metadata>
Created by potrace 1.14, written by Peter Selinger 2001-2017
</metadata>
<g transform="translate(0.000000,981.000000) scale(0.100000,-0.100000)"
fill="#000000" stroke="none">
<path d="M4471 6392 c-5 -9 -57 -120 -116 -247 -59 -126 -125 -267 -146 -313
-22 -46 -39 -85 -39 -88 0 -2 98 -1 218 3 462 14 1095 5 1532 -21 176 -11 232
-15 315 -22 44 -4 102 -7 128 -8 l49 -1 109 235 c61 129 126 268 145 309 19
40 34 75 32 76 -2 2 -28 6 -58 9 -118 12 -268 26 -325 30 -170 14 -216 17
-285 21 -139 7 -295 17 -355 21 -33 2 -315 6 -627 8 -528 5 -568 4 -577 -12z"/>
<path d="M3507 6354 c-1 -1 -45 -5 -97 -8 -52 -4 -102 -9 -110 -11 -8 -2 -51
-6 -95 -10 -44 -3 -114 -10 -155 -15 -41 -5 -100 -12 -130 -15 -49 -5 -159
-19 -230 -30 -14 -2 -59 -9 -100 -14 -41 -6 -84 -12 -95 -15 -11 -2 -41 -6
-66 -10 -25 -4 -57 -9 -70 -11 -13 -2 -62 -11 -109 -19 -83 -15 -286 -53 -325
-62 -11 -3 -31 -7 -45 -10 -14 -3 -52 -11 -85 -20 -33 -8 -69 -16 -80 -18 -24
-5 -113 -28 -220 -56 -180 -48 -492 -152 -612 -205 -322 -143 -502 -255 -645
-402 -167 -170 -239 -336 -233 -538 13 -463 473 -812 1435 -1090 69 -20 136
-39 150 -41 14 -3 41 -9 60 -15 81 -22 419 -95 533 -114 17 -3 39 -8 47 -10 8
-2 33 -6 55 -10 22 -3 92 -14 155 -24 63 -11 140 -22 170 -26 112 -14 191 -25
213 -31 19 -6 19 -5 218 423 50 107 89 196 87 198 -2 2 -24 6 -48 9 -117 15
-317 41 -463 61 -92 12 -378 65 -552 101 -652 134 -1210 354 -1375 542 l-39
44 31 39 c128 159 538 342 1073 479 166 42 429 101 520 116 17 2 76 13 133 23
56 10 102 14 102 10 0 -5 -4 -17 -10 -27 -9 -15 -72 -149 -137 -292 -14 -30
-42 -91 -63 -135 -20 -44 -52 -111 -70 -150 -18 -38 -57 -121 -86 -184 -30
-62 -54 -119 -54 -126 0 -14 120 -72 165 -79 44 -7 104 -15 155 -20 25 -3 65
-8 90 -11 25 -3 68 -7 95 -10 28 -3 73 -7 100 -11 l50 -5 40 88 c21 48 70 153
108 232 110 232 147 311 182 391 18 41 63 137 99 213 36 76 66 139 66 141 0 2
29 64 64 137 35 74 77 163 93 199 17 36 49 103 71 150 73 155 132 283 132 287
0 4 -88 1 -93 -3z"/>
<path d="M6924 6174 c-30 -64 -63 -135 -74 -158 -10 -23 -37 -81 -60 -131 -86
-183 -101 -218 -98 -220 3 -3 48 -10 131 -20 23 -3 58 -7 77 -10 19 -3 55 -7
80 -10 25 -3 56 -8 70 -10 14 -3 45 -7 70 -10 25 -3 70 -10 100 -15 30 -5 69
-12 85 -14 59 -8 121 -18 190 -31 39 -8 84 -16 100 -19 453 -79 997 -246 1270
-390 168 -89 295 -190 295 -235 0 -22 -75 -93 -154 -145 -186 -123 -465 -237
-836 -341 -81 -22 -357 -89 -410 -99 -14 -2 -45 -9 -70 -15 -25 -5 -56 -12
-70 -14 -14 -3 -43 -8 -65 -12 -22 -4 -49 -9 -60 -11 -36 -7 -139 -25 -162
-29 -13 -2 -23 0 -23 5 0 4 18 44 40 89 22 44 40 83 40 85 0 2 27 62 61 133
34 70 75 157 91 193 45 98 76 164 135 289 29 62 53 119 53 126 0 7 -30 26 -67
43 -65 30 -125 41 -363 67 -25 3 -61 7 -80 10 -19 2 -60 7 -90 10 -54 5 -55 5
-69 -27 -8 -18 -33 -73 -56 -123 -23 -49 -51 -110 -63 -135 -11 -25 -50 -108
-87 -185 -37 -77 -76 -160 -87 -185 -85 -187 -184 -400 -268 -575 -45 -93
-101 -213 -105 -225 -3 -8 -49 -107 -114 -244 -34 -71 -61 -131 -61 -133 0 -5
138 3 220 12 44 5 124 12 215 21 39 3 77 8 85 9 8 2 47 6 85 10 39 4 81 8 95
10 14 2 45 6 70 10 39 5 141 19 220 30 114 16 222 33 260 40 14 3 42 8 64 10
218 28 869 185 1096 265 14 5 66 23 115 40 50 17 99 35 110 40 11 5 49 21 85
36 439 179 725 414 834 683 30 74 31 80 31 236 0 154 -1 163 -29 230 -40 95
-81 162 -146 237 -264 305 -804 550 -1630 739 -52 12 -104 23 -115 25 -11 1
-90 16 -175 33 -153 29 -244 46 -308 56 -91 15 -304 45 -352 51 -30 3 -58 8
-63 11 -4 2 -32 -48 -63 -113z"/>
<path d="M3941 5229 c-9 -4 -32 -40 -51 -80 -18 -41 -62 -134 -97 -207 -35
-74 -63 -135 -63 -137 0 -1 -22 -50 -50 -108 -27 -58 -50 -109 -50 -114 0 -4
508 -8 1130 -8 l1129 0 57 120 c31 66 97 208 146 315 50 107 95 201 100 208 8
9 4 12 -13 12 -295 5 -2225 3 -2238 -1z"/>
<path d="M3372 4037 c-22 -46 -63 -132 -90 -193 -28 -60 -75 -163 -106 -228
-31 -65 -54 -121 -52 -123 2 -3 26 -6 53 -9 26 -2 72 -6 101 -9 69 -7 140 -13
237 -20 44 -3 103 -8 130 -11 60 -5 150 -11 305 -19 63 -3 156 -8 205 -11 50
-3 336 -7 638 -10 l547 -6 56 119 c31 65 70 147 86 183 53 115 95 203 132 283
20 42 36 79 36 81 0 2 -87 2 -192 -2 -376 -11 -1041 -6 -1403 12 -95 5 -286
17 -335 21 -25 2 -83 7 -130 10 -47 3 -106 8 -132 11 l-46 5 -40 -84z"/>
</g>
</svg>
